<svg xmlns="http://www.w3.org/2000/svg" viewBox="0 0 1400 760" role="img" aria-label="black and white water ripples">
  <filter id="grain">
    <feTurbulence type="fractalNoise" baseFrequency="0.85" numOctaves="3" seed="8"/>
    <feColorMatrix type="saturate" values="0"/>
    <feComponentTransfer>
      <feFuncA type="table" tableValues="0 0.42"/>
    </feComponentTransfer>
  </filter>
  <filter id="wave">
    <feTurbulence type="fractalNoise" baseFrequency="0.012 0.05" numOctaves="4" seed="12" result="noise"/>
    <feDisplacementMap in="SourceGraphic" in2="noise" scale="38" xChannelSelector="R" yChannelSelector="G"/>
  </filter>
  <rect width="1400" height="760" fill="#8d8d8d"/>
  <g filter="url(#wave)" fill="none" stroke-linecap="round">
    <path d="M-40 80C160 24 275 135 488 64S884 85 1050 41s286 14 414 60" stroke="#f5f5f5" stroke-width="13" opacity=".56"/>
    <path d="M-48 154C141 103 320 199 515 131s391-27 552-1 247 91 408 36" stroke="#222" stroke-width="18" opacity=".27"/>
    <path d="M-24 223C170 156 310 260 508 199s345-19 558-8 283 77 420 21" stroke="#fff" stroke-width="7" opacity=".47"/>
    <path d="M-70 300C80 248 246 335 430 284s357-67 565-3 316 8 487-44" stroke="#111" stroke-width="20" opacity=".23"/>
    <path d="M-40 378C149 329 300 433 494 363s359-14 548 9 307 56 450 4" stroke="#fbfbfb" stroke-width="9" opacity=".46"/>
    <path d="M-70 458C113 390 276 517 472 446s340-25 550 5 302 40 458-26" stroke="#292929" stroke-width="16" opacity=".26"/>
    <path d="M-50 530C104 483 294 570 464 517s360-47 548-1 308 31 470-32" stroke="#fff" stroke-width="6" opacity=".5"/>
    <path d="M-30 612C158 548 300 670 514 597s357-19 552 4 287 71 422 2" stroke="#171717" stroke-width="19" opacity=".22"/>
    <path d="M-48 688C112 647 307 720 514 662s374-29 558-2 302 52 430 6" stroke="#fafafa" stroke-width="8" opacity=".42"/>
  </g>
  <g filter="url(#grain)" opacity=".8">
    <rect width="1400" height="760" fill="#fff"/>
  </g>
  <rect width="1400" height="760" fill="url(#v)"/>
  <defs>
    <radialGradient id="v" cx="50%" cy="44%" r="72%">
      <stop offset="0" stop-color="#fff" stop-opacity=".16"/>
      <stop offset=".62" stop-color="#111" stop-opacity="0"/>
      <stop offset="1" stop-color="#000" stop-opacity=".42"/>
    </radialGradient>
  </defs>
</svg>
